# xmcd CD database file
#
# Track frame offsets:
#	150
#	13567
#	28202
#	43985
#	65570
#	78880
#	89737
#	115220
#	130370
#	157295
#	170717
#	184977
#	200945
#
# Disc length: 3066 seconds
#
# Revision: 0
# Processed by: cddbd v1.5.1PL0 Copyright (c) Steve Scherf et al.
# Submitted via: CDex 1.51
#
DISCID=c80bf80d
DTITLE=Mimi Blais - Geraldine
DYEAR=1900
DGENRE=Jazz
TTITLE0=Geraldine
TTITLE1=The Chevy Chase
TTITLE2=Walper House Rag
TTITLE3=Valse Miroir
TTITLE4=Floyd
TTITLE5=11th Street Rag
TTITLE6=Blue Rondo A La Turk
TTITLE7=Broadway Rag
TTITLE8=Sadly, Sadly, Little Rag
TTITLE9=The Baltimore Todolo
TTITLE10=Swipesy (Cake Wlk)
TTITLE11=Euphonic Sounds
TTITLE12=Bink's Waltz
EXTD=
EXTT0=
EXTT1=
EXTT2=
EXTT3=
EXTT4=
EXTT5=
EXTT6=
EXTT7=
EXTT8=
EXTT9=
EXTT10=
EXTT11=
EXTT12=
PLAYORDER=
